# xmcd CD database file
#
# Track frame offsets:
#	150
#	9016
#	17559
#	27079
#	42929
#	58178
#	69119
#	97367
#	116035
#	130684
#	146154
#	164232
#	175647
#	195590
#	205271
#	223502
#	235849
#	246210
#
# Disc length: 3591 seconds
#
# Revision: 7
# Processed by: cddbd v1.5.2PL0 Copyright (c) Steve Scherf et al.
# Submitted via: CDex 1.70beta2
#
DISCID=fb0e0512
DTITLE=Cash, Johnny - At San Quentin (The Complete 1969 Concert)
DYEAR=1969
DGENRE=Country
TTITLE0=Big River
TTITLE1=I Still Miss Someone
TTITLE2=Wreck Of The Old 97
TTITLE3=I Walk The Line
TTITLE4=Darlin' Companion
TTITLE5=I Don't Know Where I'm Bound
TTITLE6=Starkville City Jail
TTITLE7=San Quentin (1)
TTITLE8=San Quentin (2)
TTITLE9=Wanted Man
TTITLE10=A Boy Named Sue
TTITLE11=(There'll Be) Peace In The Valley
TTITLE12=Folsom Prison Blues
TTITLE13=Ring Of Fire
TTITLE14=He Turned The Water Into Wine
TTITLE15=Daddy Sang Bass
TTITLE16=The Old Account Was Settled Long Ago
TTITLE17=Closing Medley: Fpb, Iwtl, Rof, The Rebel-Johnny Yuma
EXTD=YEAR: 1969
EXTT0=
EXTT1=
EXTT2=
EXTT3=
EXTT4=
EXTT5=
EXTT6=
EXTT7=
EXTT8=
EXTT9=
EXTT10=
EXTT11=
EXTT12=
EXTT13=
EXTT14=
EXTT15=
EXTT16=
EXTT17=
PLAYORDER=
